<?xml version="1.0" encoding="utf-8"?>
<!-- Generator: Adobe Illustrator 26.2.1, SVG Export Plug-In . SVG Version: 6.00 Build 0)  -->
<svg version="1.1" id="Layer_1" xmlns="http://www.w3.org/2000/svg" xmlns:xlink="http://www.w3.org/1999/xlink" x="0px" y="0px"
	 viewBox="0 0 280.2 26.2" style="enable-background:new 0 0 280.2 26.2;" xml:space="preserve">
<style type="text/css">
	.st0{fill:#FF00A4;}
	.st1{fill:#00B1FF;}
</style>
<g id="a">
</g>
<g id="b">
	<g id="c">
		<g>
			<path class="st0" d="M0,22.6l0.7-0.9c1.7,1.9,5,3.4,8.6,3.4c5.4,0,7.8-2.5,7.8-5.5c0-8.3-16.3-3.4-16.3-13C0.7,3.2,3.4,0,9.6,0
				c2.9,0,5.7,0.9,7.7,2.4l-0.6,1C14.6,1.9,12,1.1,9.6,1.1C4.4,1.1,2,3.6,2,6.7c0,8.3,16.3,3.5,16.3,12.9c0,3.5-2.8,6.6-9,6.6
				C5.4,26.2,1.8,24.7,0,22.6L0,22.6z"/>
			<path class="st0" d="M40.9,18.5H25.4L21.9,26h-1.4l12-25.9h1.2l12,25.9h-1.4C44.4,26,40.9,18.5,40.9,18.5z M40.4,17.4L33.2,1.6
				l-7.3,15.8H40.4z"/>
			<path class="st0" d="M69.5,19.2c0,4.4-3.1,6.8-9.4,6.8H48.8V0.2h10.5c5.4,0,8.8,2.3,8.8,6.6c0,3.2-1.8,5.2-4.7,6
				C67.4,13.4,69.5,15.6,69.5,19.2L69.5,19.2z M50.1,1.3v11.1h9.3c4.7,0,7.5-1.9,7.5-5.6s-2.8-5.6-7.5-5.6
				C59.3,1.3,50.1,1.3,50.1,1.3z M68.2,19.2c0-4-2.8-5.8-8.1-5.8h-10V25h10.1C65.4,25,68.2,23.2,68.2,19.2z"/>
			<path class="st0" d="M91.8,26l-6.4-8.9c-0.8,0.1-1.8,0.2-2.8,0.2h-7.7V26h-1.3V0.2h9c6.4,0,10.3,3.2,10.3,8.6
				c0,4.2-2.3,7-6.2,8.1l6.6,9.2L91.8,26L91.8,26z M82.6,16.2c5.8,0,9-2.7,9-7.5s-3.2-7.4-9-7.4h-7.8v14.9H82.6z"/>
			<path class="st0" d="M98.1,0.2h1.3V26h-1.3V0.2z"/>
			<path class="st0" d="M126.5,0.2V26h-1L107.1,2.4V26h-1.3V0.2h1l18.4,23.6V0.2H126.5z"/>
			<path class="st0" d="M150.9,18.5h-15.5l-3.5,7.6h-1.4l12-25.9h1.2l12,25.9h-1.4L150.9,18.5L150.9,18.5z M150.4,17.4l-7.2-15.8
				l-7.3,15.8H150.4z"/>
			<path class="st1" d="M185.2,19.2c0,4.4-3.1,6.8-9.4,6.8h-11.2V0.2H175c5.4,0,8.8,2.3,8.8,6.6c0,3.2-1.9,5.2-4.7,6
				C183.1,13.4,185.2,15.6,185.2,19.2L185.2,19.2z M165.8,1.3v11.1h9.3c4.7,0,7.5-1.9,7.5-5.6s-2.8-5.6-7.5-5.6
				C175.1,1.3,165.8,1.3,165.8,1.3z M184,19.2c0-4-2.8-5.8-8.1-5.8h-10.1V25h10.1C181.2,25,184,23.2,184,19.2z"/>
			<path class="st1" d="M205.8,24.9V26h-17.5V0.2h17v1.1h-15.7v11h14.1v1.1h-14.1v11.4h16.2V24.9z"/>
			<path class="st1" d="M229.6,24.9V26H209v-0.9l18.5-23.9h-18.3v-1h20V1l-18.5,23.9H229.6L229.6,24.9z"/>
			<path class="st1" d="M252.6,18.5h-15.5l-3.5,7.6h-1.4l12-25.9h1.2l12,25.9H256L252.6,18.5L252.6,18.5z M252.2,17.4L245,1.6
				l-7.3,15.8H252.2z"/>
			<path class="st1" d="M278.7,26l-6.4-8.9c-0.9,0.1-1.8,0.2-2.8,0.2h-7.7V26h-1.3V0.2h9c6.4,0,10.3,3.2,10.3,8.6
				c0,4.2-2.3,7-6.2,8.1l6.6,9.2L278.7,26L278.7,26z M269.6,16.2c5.8,0,9-2.7,9-7.5s-3.2-7.4-9-7.4h-7.8v14.9H269.6z"/>
		</g>
	</g>
</g>
</svg>
